<svg width="44" height="64" viewBox="0 0 44 64" fill="none" xmlns="http://www.w3.org/2000/svg">
<path fill-rule="evenodd" clip-rule="evenodd" d="M27.6817 0C28.5102 0 29.1817 0.671573 29.1817 1.5V28.1747C29.1817 42.1119 18.9136 58.822 1.85375 62.9578C1.04864 63.153 0.237749 62.6585 0.0425713 61.8534C-0.152606 61.0483 0.341839 60.2374 1.14695 60.0422C16.6895 56.2743 26.1817 40.9122 26.1817 28.1747V1.5C26.1817 0.671573 26.8533 0 27.6817 0Z" fill="white"/>
<path fill-rule="evenodd" clip-rule="evenodd" d="M21.7537 0C22.5822 0 23.2537 0.671573 23.2537 1.5V28.2371L23.2486 28.2993C22.2275 40.5521 16.5421 52.2408 1.95942 56.928C1.17073 57.1815 0.325867 56.7477 0.0723611 55.959C-0.181145 55.1703 0.252704 54.3255 1.04139 54.072C14.0979 49.8752 19.2855 39.5453 20.2537 28.1118V1.5C20.2537 0.671573 20.9253 0 21.7537 0Z" fill="white"/>
<path fill-rule="evenodd" clip-rule="evenodd" d="M15.8257 0C16.6541 0 17.3257 0.671573 17.3257 1.5V28.2264L17.3221 28.2779C16.9855 33.1588 16.0928 37.5115 13.7709 41.3069C11.4356 45.1242 7.75221 48.2216 2.12107 50.7812C1.3669 51.124 0.477623 50.7905 0.134817 50.0364C-0.207988 49.2822 0.12549 48.3929 0.879663 48.0501C6.11599 45.67 9.26598 42.922 11.2118 39.7413C13.1638 36.5505 14.0011 32.7686 14.3257 28.1227V1.5C14.3257 0.671573 14.9972 0 15.8257 0Z" fill="white"/>
<path fill-rule="evenodd" clip-rule="evenodd" d="M27.6816 29.6387C28.5101 29.6387 29.1816 30.3102 29.1816 31.1387C29.1816 34.5208 31.2961 38.1778 34.2137 41.3361C37.1122 44.4737 40.5119 46.8038 42.5485 47.6039C43.3195 47.9068 43.699 48.7774 43.3961 49.5485C43.0932 50.3195 42.2226 50.699 41.4515 50.3961C38.8777 49.385 35.1182 46.7362 32.0101 43.3718C28.9212 40.0282 26.1816 35.6602 26.1816 31.1387C26.1816 30.3102 26.8532 29.6387 27.6816 29.6387Z" fill="white"/>
<path fill-rule="evenodd" clip-rule="evenodd" d="M21.5884 28.6597C22.4118 28.5682 23.1534 29.1615 23.2449 29.9849C24.3746 40.1521 31.0983 50.2764 42.4643 53.9147C43.2533 54.1673 43.6882 55.0116 43.4356 55.8006C43.1831 56.5896 42.3387 57.0244 41.5498 56.7719C28.902 52.7233 21.5046 41.4887 20.2632 30.3162C20.1717 29.4928 20.765 28.7512 21.5884 28.6597Z" fill="white"/>
<path fill-rule="evenodd" clip-rule="evenodd" d="M15.6607 28.1656C16.484 28.0741 17.2256 28.6674 17.3171 29.4907C18.4618 39.7931 24.7063 54.8139 42.4629 60.5728C43.2509 60.8284 43.6825 61.6744 43.427 62.4624C43.1714 63.2504 42.3254 63.6821 41.5374 63.4265C22.294 57.1854 15.5619 40.8595 14.3355 29.822C14.244 28.9987 14.8373 28.257 15.6607 28.1656Z" fill="white"/>
</svg>
