<svg width="23" height="23" viewBox="0 0 23 23" fill="none" xmlns="http://www.w3.org/2000/svg">
<path fill-rule="evenodd" clip-rule="evenodd" d="M3.30023 9.3207C5.53437 14.1856 9.50998 18.0533 14.4522 20.149L14.4678 20.1556L15.4226 20.5812C16.6383 21.1229 18.0674 20.7382 18.8469 19.6593L20.4398 17.4546C20.5371 17.32 20.5121 17.1327 20.3828 17.0284L17.6018 14.7849C17.4636 14.6734 17.2603 14.6993 17.1545 14.842L16.0722 16.3025C15.8094 16.6572 15.3347 16.7805 14.9325 16.5985C11.237 14.926 8.26733 11.9564 6.59491 8.26089C6.4129 7.85869 6.53614 7.384 6.89083 7.12115L8.3513 6.03882C8.49401 5.93307 8.51999 5.72978 8.40846 5.59154L6.16466 2.81023C6.06037 2.68096 5.87319 2.65586 5.73853 2.75307L3.52191 4.35327C2.43592 5.13725 2.05348 6.57831 2.6078 7.79763L3.29948 9.31908C3.29973 9.31962 3.29998 9.32016 3.30023 9.3207ZM13.7123 21.8719C8.34226 19.5924 4.02306 15.3886 1.5955 10.1014L1.59404 10.0983L0.900914 8.57361C-0.0229611 6.54143 0.614449 4.13966 2.42443 2.83302L4.64104 1.23282C5.58369 0.552314 6.89398 0.72807 7.62397 1.63294L9.86778 4.41424C10.6485 5.38195 10.4666 6.80495 9.46769 7.54525L8.63081 8.16544C10.0445 10.9084 12.2849 13.1489 15.0279 14.5626L15.6481 13.7257C16.3884 12.7267 17.8114 12.5449 18.7791 13.3256L21.5601 15.5691C22.4652 16.2993 22.6407 17.6101 21.9596 18.5527L20.3667 20.7574C19.0675 22.5555 16.6858 23.1967 14.6595 22.2939L13.7123 21.8719Z" fill="white"/>
</svg>
